# xmcd
#
# Track frame offsets:
#	150
#	19248
#	34646
#	51494
#	73095
#	89609
#	108321
#	125918
#	142823
#	165066
#	183556
#	199822
#	217700
#	232343
#	248302
#	265320
#	283997
#	304248
#	326002
#
# Disc length: 4598 seconds
#
# Revision: 1
# Processed by: cddbd v1.5.2PL0 Copyright (c) Steve Scherf et al.
# Submitted via: audiograbber 1.83.01
#
DISCID=1b11f413
DTITLE=Marco Antonio Solis - Trolos De Mi Alma 2
DYEAR=1900
DGENRE=
TTITLE0=Antes De Que Te Vayas
TTITLE1=Quien Se Enamoro
TTITLE2=Te Voy A Esperar
TTITLE3=Hay Veces
TTITLE4=Pidemelo Todo
TTITLE5=extranandote
TTITLE6=Dios Bendiga Nuestro Amor
TTITLE7=Ojala
TTITLE8=Yo Creia Que Si
TTITLE9=No Puedo Olvidarla
TTITLE10=A Aquella
TTITLE11=Amor En Silencio
TTITLE12=La Venia Vendita
TTITLE13=Inventame
TTITLE14=Mi Eterno Amor Secreto
TTITLE15=Que Pena Me Das
TTITLE16=Recuerdos Tristesa y Soledad
TTITLE17=Tus Mentiras
TTITLE18=Unknown Track
EXTD=
EXTT0=
EXTT1=
EXTT2=
EXTT3=
EXTT4=
EXTT5=
EXTT6=
EXTT7=
EXTT8=
EXTT9=
EXTT10=
EXTT11=
EXTT12=
EXTT13=
EXTT14=
EXTT15=
EXTT16=
EXTT17=
EXTT18=
PLAYORDER=
